<mxfile host="app.diagrams.net" modified="2022-11-08T23:16:40.087Z" agent="5.0 (Windows NT 10.0; Win64; x64) AppleWebKit/537.36 (KHTML, like Gecko) Chrome/107.0.0.0 Safari/537.36" etag="mDHOeEJUV2q6TWOCi7Fi" version="20.4.0" type="github">
  <diagram id="C5RBs43oDa-KdzZeNtuy" name="Page-1">
    <mxGraphModel dx="982" dy="550" grid="1" gridSize="10" guides="1" tooltips="1" connect="1" arrows="1" fold="1" page="1" pageScale="1" pageWidth="827" pageHeight="1169" math="0" shadow="0">
      <root>
        <mxCell id="WIyWlLk6GJQsqaUBKTNV-0" />
        <mxCell id="WIyWlLk6GJQsqaUBKTNV-1" parent="WIyWlLk6GJQsqaUBKTNV-0" />
        <mxCell id="MnV9GLGx5AJl5u8KH2vK-23" value="" style="edgeStyle=orthogonalEdgeStyle;rounded=0;orthogonalLoop=1;jettySize=auto;html=1;" edge="1" parent="WIyWlLk6GJQsqaUBKTNV-1" source="WIyWlLk6GJQsqaUBKTNV-3" target="MnV9GLGx5AJl5u8KH2vK-22">
          <mxGeometry relative="1" as="geometry" />
        </mxCell>
        <mxCell id="WIyWlLk6GJQsqaUBKTNV-3" value="Game Starts" style="rounded=1;whiteSpace=wrap;html=1;fontSize=12;glass=0;strokeWidth=1;shadow=0;" parent="WIyWlLk6GJQsqaUBKTNV-1" vertex="1">
          <mxGeometry x="392" y="20" width="120" height="40" as="geometry" />
        </mxCell>
        <mxCell id="WIyWlLk6GJQsqaUBKTNV-4" value="Keep" style="rounded=0;html=1;jettySize=auto;orthogonalLoop=1;fontSize=11;endArrow=block;endFill=0;endSize=8;strokeWidth=1;shadow=0;labelBackgroundColor=none;edgeStyle=orthogonalEdgeStyle;exitX=0.5;exitY=1;exitDx=0;exitDy=0;" parent="WIyWlLk6GJQsqaUBKTNV-1" source="WIyWlLk6GJQsqaUBKTNV-6" target="MnV9GLGx5AJl5u8KH2vK-3" edge="1">
          <mxGeometry x="-0.4286" y="-10" relative="1" as="geometry">
            <mxPoint as="offset" />
            <mxPoint x="452" y="290" as="targetPoint" />
            <Array as="points">
              <mxPoint x="452" y="260" />
              <mxPoint x="302" y="260" />
            </Array>
          </mxGeometry>
        </mxCell>
        <mxCell id="WIyWlLk6GJQsqaUBKTNV-5" value="Discard" style="edgeStyle=orthogonalEdgeStyle;rounded=0;html=1;jettySize=auto;orthogonalLoop=1;fontSize=11;endArrow=block;endFill=0;endSize=8;strokeWidth=1;shadow=0;labelBackgroundColor=none;" parent="WIyWlLk6GJQsqaUBKTNV-1" source="WIyWlLk6GJQsqaUBKTNV-6" target="WIyWlLk6GJQsqaUBKTNV-7" edge="1">
          <mxGeometry y="10" relative="1" as="geometry">
            <mxPoint as="offset" />
          </mxGeometry>
        </mxCell>
        <mxCell id="WIyWlLk6GJQsqaUBKTNV-6" value="Plant 1" style="rhombus;whiteSpace=wrap;html=1;shadow=0;fontFamily=Helvetica;fontSize=12;align=center;strokeWidth=1;spacing=6;spacingTop=-4;" parent="WIyWlLk6GJQsqaUBKTNV-1" vertex="1">
          <mxGeometry x="402" y="160" width="100" height="80" as="geometry" />
        </mxCell>
        <mxCell id="MnV9GLGx5AJl5u8KH2vK-14" value="" style="edgeStyle=orthogonalEdgeStyle;rounded=0;orthogonalLoop=1;jettySize=auto;html=1;entryX=1;entryY=0.5;entryDx=0;entryDy=0;" edge="1" parent="WIyWlLk6GJQsqaUBKTNV-1" source="WIyWlLk6GJQsqaUBKTNV-7" target="MnV9GLGx5AJl5u8KH2vK-27">
          <mxGeometry relative="1" as="geometry">
            <mxPoint x="502" y="400" as="targetPoint" />
            <Array as="points">
              <mxPoint x="612" y="400" />
              <mxPoint x="512" y="400" />
            </Array>
          </mxGeometry>
        </mxCell>
        <mxCell id="WIyWlLk6GJQsqaUBKTNV-7" value="Plant Discarded" style="rounded=1;whiteSpace=wrap;html=1;fontSize=12;glass=0;strokeWidth=1;shadow=0;" parent="WIyWlLk6GJQsqaUBKTNV-1" vertex="1">
          <mxGeometry x="552" y="180" width="120" height="40" as="geometry" />
        </mxCell>
        <mxCell id="MnV9GLGx5AJl5u8KH2vK-13" value="No" style="edgeStyle=orthogonalEdgeStyle;rounded=0;orthogonalLoop=1;jettySize=auto;html=1;entryX=0.5;entryY=0;entryDx=0;entryDy=0;" edge="1" parent="WIyWlLk6GJQsqaUBKTNV-1" source="MnV9GLGx5AJl5u8KH2vK-3" target="MnV9GLGx5AJl5u8KH2vK-27">
          <mxGeometry x="-0.2" y="10" relative="1" as="geometry">
            <mxPoint x="452" y="360" as="targetPoint" />
            <mxPoint as="offset" />
          </mxGeometry>
        </mxCell>
        <mxCell id="MnV9GLGx5AJl5u8KH2vK-17" value="Yes" style="edgeStyle=orthogonalEdgeStyle;rounded=0;orthogonalLoop=1;jettySize=auto;html=1;" edge="1" parent="WIyWlLk6GJQsqaUBKTNV-1" source="MnV9GLGx5AJl5u8KH2vK-3" target="MnV9GLGx5AJl5u8KH2vK-15">
          <mxGeometry x="0.0476" y="-10" relative="1" as="geometry">
            <mxPoint as="offset" />
          </mxGeometry>
        </mxCell>
        <mxCell id="MnV9GLGx5AJl5u8KH2vK-3" value="Exceeds 10 Plants?" style="rhombus;whiteSpace=wrap;html=1;shadow=0;fontFamily=Helvetica;fontSize=12;align=center;strokeWidth=1;spacing=6;spacingTop=-4;" vertex="1" parent="WIyWlLk6GJQsqaUBKTNV-1">
          <mxGeometry x="252" y="300" width="100" height="80" as="geometry" />
        </mxCell>
        <mxCell id="MnV9GLGx5AJl5u8KH2vK-19" value="" style="edgeStyle=orthogonalEdgeStyle;rounded=0;orthogonalLoop=1;jettySize=auto;html=1;entryX=0;entryY=0.5;entryDx=0;entryDy=0;" edge="1" parent="WIyWlLk6GJQsqaUBKTNV-1" source="MnV9GLGx5AJl5u8KH2vK-15" target="MnV9GLGx5AJl5u8KH2vK-27">
          <mxGeometry relative="1" as="geometry">
            <mxPoint x="402" y="400" as="targetPoint" />
            <Array as="points">
              <mxPoint x="150" y="400" />
              <mxPoint x="392" y="400" />
            </Array>
          </mxGeometry>
        </mxCell>
        <mxCell id="MnV9GLGx5AJl5u8KH2vK-15" value="Replace Lowest Health Plant" style="rounded=1;whiteSpace=wrap;html=1;fontSize=12;glass=0;strokeWidth=1;shadow=0;" vertex="1" parent="WIyWlLk6GJQsqaUBKTNV-1">
          <mxGeometry x="70" y="320" width="120" height="40" as="geometry" />
        </mxCell>
        <mxCell id="MnV9GLGx5AJl5u8KH2vK-24" value="" style="edgeStyle=orthogonalEdgeStyle;rounded=0;orthogonalLoop=1;jettySize=auto;html=1;" edge="1" parent="WIyWlLk6GJQsqaUBKTNV-1" source="MnV9GLGx5AJl5u8KH2vK-22" target="WIyWlLk6GJQsqaUBKTNV-6">
          <mxGeometry relative="1" as="geometry" />
        </mxCell>
        <mxCell id="MnV9GLGx5AJl5u8KH2vK-22" value="Turn 1" style="rounded=1;whiteSpace=wrap;html=1;fontSize=12;glass=0;strokeWidth=1;shadow=0;" vertex="1" parent="WIyWlLk6GJQsqaUBKTNV-1">
          <mxGeometry x="392" y="90" width="120" height="40" as="geometry" />
        </mxCell>
        <mxCell id="MnV9GLGx5AJl5u8KH2vK-39" value="" style="edgeStyle=orthogonalEdgeStyle;rounded=0;orthogonalLoop=1;jettySize=auto;html=1;" edge="1" parent="WIyWlLk6GJQsqaUBKTNV-1" source="MnV9GLGx5AJl5u8KH2vK-27" target="MnV9GLGx5AJl5u8KH2vK-30">
          <mxGeometry relative="1" as="geometry" />
        </mxCell>
        <mxCell id="MnV9GLGx5AJl5u8KH2vK-27" value="Turn 2" style="rounded=1;whiteSpace=wrap;html=1;fontSize=12;glass=0;strokeWidth=1;shadow=0;" vertex="1" parent="WIyWlLk6GJQsqaUBKTNV-1">
          <mxGeometry x="392" y="380" width="120" height="40" as="geometry" />
        </mxCell>
        <mxCell id="MnV9GLGx5AJl5u8KH2vK-28" value="Keep" style="rounded=0;html=1;jettySize=auto;orthogonalLoop=1;fontSize=11;endArrow=block;endFill=0;endSize=8;strokeWidth=1;shadow=0;labelBackgroundColor=none;edgeStyle=orthogonalEdgeStyle;exitX=0.5;exitY=1;exitDx=0;exitDy=0;" edge="1" parent="WIyWlLk6GJQsqaUBKTNV-1" source="MnV9GLGx5AJl5u8KH2vK-30" target="MnV9GLGx5AJl5u8KH2vK-35">
          <mxGeometry x="-0.4286" y="-10" relative="1" as="geometry">
            <mxPoint as="offset" />
            <mxPoint x="452" y="580" as="targetPoint" />
            <Array as="points">
              <mxPoint x="452" y="550" />
              <mxPoint x="302" y="550" />
            </Array>
          </mxGeometry>
        </mxCell>
        <mxCell id="MnV9GLGx5AJl5u8KH2vK-29" value="Discard" style="edgeStyle=orthogonalEdgeStyle;rounded=0;html=1;jettySize=auto;orthogonalLoop=1;fontSize=11;endArrow=block;endFill=0;endSize=8;strokeWidth=1;shadow=0;labelBackgroundColor=none;" edge="1" parent="WIyWlLk6GJQsqaUBKTNV-1" source="MnV9GLGx5AJl5u8KH2vK-30" target="MnV9GLGx5AJl5u8KH2vK-32">
          <mxGeometry y="10" relative="1" as="geometry">
            <mxPoint as="offset" />
          </mxGeometry>
        </mxCell>
        <mxCell id="MnV9GLGx5AJl5u8KH2vK-30" value="Plant 2" style="rhombus;whiteSpace=wrap;html=1;shadow=0;fontFamily=Helvetica;fontSize=12;align=center;strokeWidth=1;spacing=6;spacingTop=-4;" vertex="1" parent="WIyWlLk6GJQsqaUBKTNV-1">
          <mxGeometry x="402" y="450" width="100" height="80" as="geometry" />
        </mxCell>
        <mxCell id="MnV9GLGx5AJl5u8KH2vK-31" value="" style="edgeStyle=orthogonalEdgeStyle;rounded=0;orthogonalLoop=1;jettySize=auto;html=1;entryX=1;entryY=0.5;entryDx=0;entryDy=0;" edge="1" parent="WIyWlLk6GJQsqaUBKTNV-1" source="MnV9GLGx5AJl5u8KH2vK-32" target="MnV9GLGx5AJl5u8KH2vK-38">
          <mxGeometry relative="1" as="geometry">
            <mxPoint x="502" y="690" as="targetPoint" />
            <Array as="points">
              <mxPoint x="612" y="690" />
              <mxPoint x="512" y="690" />
            </Array>
          </mxGeometry>
        </mxCell>
        <mxCell id="MnV9GLGx5AJl5u8KH2vK-32" value="Plant Discarded" style="rounded=1;whiteSpace=wrap;html=1;fontSize=12;glass=0;strokeWidth=1;shadow=0;" vertex="1" parent="WIyWlLk6GJQsqaUBKTNV-1">
          <mxGeometry x="552" y="470" width="120" height="40" as="geometry" />
        </mxCell>
        <mxCell id="MnV9GLGx5AJl5u8KH2vK-33" value="No" style="edgeStyle=orthogonalEdgeStyle;rounded=0;orthogonalLoop=1;jettySize=auto;html=1;entryX=0.5;entryY=0;entryDx=0;entryDy=0;" edge="1" parent="WIyWlLk6GJQsqaUBKTNV-1" source="MnV9GLGx5AJl5u8KH2vK-35" target="MnV9GLGx5AJl5u8KH2vK-38">
          <mxGeometry x="-0.2" y="10" relative="1" as="geometry">
            <mxPoint x="452" y="650" as="targetPoint" />
            <mxPoint as="offset" />
          </mxGeometry>
        </mxCell>
        <mxCell id="MnV9GLGx5AJl5u8KH2vK-34" value="Yes" style="edgeStyle=orthogonalEdgeStyle;rounded=0;orthogonalLoop=1;jettySize=auto;html=1;" edge="1" parent="WIyWlLk6GJQsqaUBKTNV-1" source="MnV9GLGx5AJl5u8KH2vK-35" target="MnV9GLGx5AJl5u8KH2vK-37">
          <mxGeometry x="0.0476" y="-10" relative="1" as="geometry">
            <mxPoint as="offset" />
          </mxGeometry>
        </mxCell>
        <mxCell id="MnV9GLGx5AJl5u8KH2vK-35" value="Exceeds 10 Plants?" style="rhombus;whiteSpace=wrap;html=1;shadow=0;fontFamily=Helvetica;fontSize=12;align=center;strokeWidth=1;spacing=6;spacingTop=-4;" vertex="1" parent="WIyWlLk6GJQsqaUBKTNV-1">
          <mxGeometry x="252" y="590" width="100" height="80" as="geometry" />
        </mxCell>
        <mxCell id="MnV9GLGx5AJl5u8KH2vK-36" value="" style="edgeStyle=orthogonalEdgeStyle;rounded=0;orthogonalLoop=1;jettySize=auto;html=1;entryX=0;entryY=0.5;entryDx=0;entryDy=0;" edge="1" parent="WIyWlLk6GJQsqaUBKTNV-1" source="MnV9GLGx5AJl5u8KH2vK-37" target="MnV9GLGx5AJl5u8KH2vK-38">
          <mxGeometry relative="1" as="geometry">
            <mxPoint x="402" y="690" as="targetPoint" />
            <Array as="points">
              <mxPoint x="150" y="690" />
              <mxPoint x="392" y="690" />
            </Array>
          </mxGeometry>
        </mxCell>
        <mxCell id="MnV9GLGx5AJl5u8KH2vK-37" value="Replace Lowest Health Plant" style="rounded=1;whiteSpace=wrap;html=1;fontSize=12;glass=0;strokeWidth=1;shadow=0;" vertex="1" parent="WIyWlLk6GJQsqaUBKTNV-1">
          <mxGeometry x="70" y="610" width="120" height="40" as="geometry" />
        </mxCell>
        <mxCell id="MnV9GLGx5AJl5u8KH2vK-62" value="" style="edgeStyle=orthogonalEdgeStyle;rounded=0;orthogonalLoop=1;jettySize=auto;html=1;" edge="1" parent="WIyWlLk6GJQsqaUBKTNV-1" source="MnV9GLGx5AJl5u8KH2vK-38" target="MnV9GLGx5AJl5u8KH2vK-53">
          <mxGeometry relative="1" as="geometry" />
        </mxCell>
        <mxCell id="MnV9GLGx5AJl5u8KH2vK-38" value="Turn 3" style="rounded=1;whiteSpace=wrap;html=1;fontSize=12;glass=0;strokeWidth=1;shadow=0;" vertex="1" parent="WIyWlLk6GJQsqaUBKTNV-1">
          <mxGeometry x="392" y="670" width="120" height="40" as="geometry" />
        </mxCell>
        <mxCell id="MnV9GLGx5AJl5u8KH2vK-51" value="Keep" style="rounded=0;html=1;jettySize=auto;orthogonalLoop=1;fontSize=11;endArrow=block;endFill=0;endSize=8;strokeWidth=1;shadow=0;labelBackgroundColor=none;edgeStyle=orthogonalEdgeStyle;exitX=0.5;exitY=1;exitDx=0;exitDy=0;" edge="1" parent="WIyWlLk6GJQsqaUBKTNV-1" source="MnV9GLGx5AJl5u8KH2vK-53" target="MnV9GLGx5AJl5u8KH2vK-58">
          <mxGeometry x="-0.4286" y="-10" relative="1" as="geometry">
            <mxPoint as="offset" />
            <mxPoint x="452" y="880" as="targetPoint" />
            <Array as="points">
              <mxPoint x="452" y="850" />
              <mxPoint x="302" y="850" />
            </Array>
          </mxGeometry>
        </mxCell>
        <mxCell id="MnV9GLGx5AJl5u8KH2vK-52" value="Discard" style="edgeStyle=orthogonalEdgeStyle;rounded=0;html=1;jettySize=auto;orthogonalLoop=1;fontSize=11;endArrow=block;endFill=0;endSize=8;strokeWidth=1;shadow=0;labelBackgroundColor=none;" edge="1" parent="WIyWlLk6GJQsqaUBKTNV-1" source="MnV9GLGx5AJl5u8KH2vK-53" target="MnV9GLGx5AJl5u8KH2vK-55">
          <mxGeometry y="10" relative="1" as="geometry">
            <mxPoint as="offset" />
          </mxGeometry>
        </mxCell>
        <mxCell id="MnV9GLGx5AJl5u8KH2vK-53" value="Plant 3" style="rhombus;whiteSpace=wrap;html=1;shadow=0;fontFamily=Helvetica;fontSize=12;align=center;strokeWidth=1;spacing=6;spacingTop=-4;" vertex="1" parent="WIyWlLk6GJQsqaUBKTNV-1">
          <mxGeometry x="402" y="750" width="100" height="80" as="geometry" />
        </mxCell>
        <mxCell id="MnV9GLGx5AJl5u8KH2vK-54" value="" style="edgeStyle=orthogonalEdgeStyle;rounded=0;orthogonalLoop=1;jettySize=auto;html=1;entryX=1;entryY=0.5;entryDx=0;entryDy=0;" edge="1" parent="WIyWlLk6GJQsqaUBKTNV-1" source="MnV9GLGx5AJl5u8KH2vK-55" target="MnV9GLGx5AJl5u8KH2vK-61">
          <mxGeometry relative="1" as="geometry">
            <mxPoint x="502" y="990" as="targetPoint" />
            <Array as="points">
              <mxPoint x="612" y="990" />
              <mxPoint x="512" y="990" />
            </Array>
          </mxGeometry>
        </mxCell>
        <mxCell id="MnV9GLGx5AJl5u8KH2vK-55" value="Plant Discarded" style="rounded=1;whiteSpace=wrap;html=1;fontSize=12;glass=0;strokeWidth=1;shadow=0;" vertex="1" parent="WIyWlLk6GJQsqaUBKTNV-1">
          <mxGeometry x="552" y="770" width="120" height="40" as="geometry" />
        </mxCell>
        <mxCell id="MnV9GLGx5AJl5u8KH2vK-56" value="No" style="edgeStyle=orthogonalEdgeStyle;rounded=0;orthogonalLoop=1;jettySize=auto;html=1;entryX=0.5;entryY=0;entryDx=0;entryDy=0;" edge="1" parent="WIyWlLk6GJQsqaUBKTNV-1" source="MnV9GLGx5AJl5u8KH2vK-58" target="MnV9GLGx5AJl5u8KH2vK-61">
          <mxGeometry x="-0.2" y="10" relative="1" as="geometry">
            <mxPoint x="452" y="950" as="targetPoint" />
            <mxPoint as="offset" />
          </mxGeometry>
        </mxCell>
        <mxCell id="MnV9GLGx5AJl5u8KH2vK-57" value="Yes" style="edgeStyle=orthogonalEdgeStyle;rounded=0;orthogonalLoop=1;jettySize=auto;html=1;" edge="1" parent="WIyWlLk6GJQsqaUBKTNV-1" source="MnV9GLGx5AJl5u8KH2vK-58" target="MnV9GLGx5AJl5u8KH2vK-60">
          <mxGeometry x="0.0476" y="-10" relative="1" as="geometry">
            <mxPoint as="offset" />
          </mxGeometry>
        </mxCell>
        <mxCell id="MnV9GLGx5AJl5u8KH2vK-58" value="Exceeds 10 Plants?" style="rhombus;whiteSpace=wrap;html=1;shadow=0;fontFamily=Helvetica;fontSize=12;align=center;strokeWidth=1;spacing=6;spacingTop=-4;" vertex="1" parent="WIyWlLk6GJQsqaUBKTNV-1">
          <mxGeometry x="252" y="890" width="100" height="80" as="geometry" />
        </mxCell>
        <mxCell id="MnV9GLGx5AJl5u8KH2vK-59" value="" style="edgeStyle=orthogonalEdgeStyle;rounded=0;orthogonalLoop=1;jettySize=auto;html=1;entryX=0;entryY=0.5;entryDx=0;entryDy=0;" edge="1" parent="WIyWlLk6GJQsqaUBKTNV-1" source="MnV9GLGx5AJl5u8KH2vK-60" target="MnV9GLGx5AJl5u8KH2vK-61">
          <mxGeometry relative="1" as="geometry">
            <mxPoint x="402" y="990" as="targetPoint" />
            <Array as="points">
              <mxPoint x="150" y="990" />
              <mxPoint x="392" y="990" />
            </Array>
          </mxGeometry>
        </mxCell>
        <mxCell id="MnV9GLGx5AJl5u8KH2vK-60" value="Replace Lowest Health Plant" style="rounded=1;whiteSpace=wrap;html=1;fontSize=12;glass=0;strokeWidth=1;shadow=0;" vertex="1" parent="WIyWlLk6GJQsqaUBKTNV-1">
          <mxGeometry x="70" y="910" width="120" height="40" as="geometry" />
        </mxCell>
        <mxCell id="MnV9GLGx5AJl5u8KH2vK-74" value="" style="edgeStyle=orthogonalEdgeStyle;rounded=0;orthogonalLoop=1;jettySize=auto;html=1;" edge="1" parent="WIyWlLk6GJQsqaUBKTNV-1" source="MnV9GLGx5AJl5u8KH2vK-61" target="MnV9GLGx5AJl5u8KH2vK-65">
          <mxGeometry relative="1" as="geometry" />
        </mxCell>
        <mxCell id="MnV9GLGx5AJl5u8KH2vK-61" value="Turn 4" style="rounded=1;whiteSpace=wrap;html=1;fontSize=12;glass=0;strokeWidth=1;shadow=0;" vertex="1" parent="WIyWlLk6GJQsqaUBKTNV-1">
          <mxGeometry x="392" y="970" width="120" height="40" as="geometry" />
        </mxCell>
        <mxCell id="MnV9GLGx5AJl5u8KH2vK-63" value="Keep" style="rounded=0;html=1;jettySize=auto;orthogonalLoop=1;fontSize=11;endArrow=block;endFill=0;endSize=8;strokeWidth=1;shadow=0;labelBackgroundColor=none;edgeStyle=orthogonalEdgeStyle;exitX=0.5;exitY=1;exitDx=0;exitDy=0;" edge="1" parent="WIyWlLk6GJQsqaUBKTNV-1" source="MnV9GLGx5AJl5u8KH2vK-65" target="MnV9GLGx5AJl5u8KH2vK-70">
          <mxGeometry x="-0.4286" y="-10" relative="1" as="geometry">
            <mxPoint as="offset" />
            <mxPoint x="452" y="1180" as="targetPoint" />
            <Array as="points">
              <mxPoint x="452" y="1150" />
              <mxPoint x="302" y="1150" />
            </Array>
          </mxGeometry>
        </mxCell>
        <mxCell id="MnV9GLGx5AJl5u8KH2vK-64" value="Discard" style="edgeStyle=orthogonalEdgeStyle;rounded=0;html=1;jettySize=auto;orthogonalLoop=1;fontSize=11;endArrow=block;endFill=0;endSize=8;strokeWidth=1;shadow=0;labelBackgroundColor=none;" edge="1" parent="WIyWlLk6GJQsqaUBKTNV-1" source="MnV9GLGx5AJl5u8KH2vK-65" target="MnV9GLGx5AJl5u8KH2vK-67">
          <mxGeometry y="10" relative="1" as="geometry">
            <mxPoint as="offset" />
          </mxGeometry>
        </mxCell>
        <mxCell id="MnV9GLGx5AJl5u8KH2vK-65" value="Plant 4" style="rhombus;whiteSpace=wrap;html=1;shadow=0;fontFamily=Helvetica;fontSize=12;align=center;strokeWidth=1;spacing=6;spacingTop=-4;" vertex="1" parent="WIyWlLk6GJQsqaUBKTNV-1">
          <mxGeometry x="402" y="1050" width="100" height="80" as="geometry" />
        </mxCell>
        <mxCell id="MnV9GLGx5AJl5u8KH2vK-66" value="" style="edgeStyle=orthogonalEdgeStyle;rounded=0;orthogonalLoop=1;jettySize=auto;html=1;entryX=1;entryY=0.5;entryDx=0;entryDy=0;" edge="1" parent="WIyWlLk6GJQsqaUBKTNV-1" source="MnV9GLGx5AJl5u8KH2vK-67" target="MnV9GLGx5AJl5u8KH2vK-73">
          <mxGeometry relative="1" as="geometry">
            <mxPoint x="502" y="1290" as="targetPoint" />
            <Array as="points">
              <mxPoint x="612" y="1290" />
              <mxPoint x="512" y="1290" />
            </Array>
          </mxGeometry>
        </mxCell>
        <mxCell id="MnV9GLGx5AJl5u8KH2vK-67" value="Plant Discarded" style="rounded=1;whiteSpace=wrap;html=1;fontSize=12;glass=0;strokeWidth=1;shadow=0;" vertex="1" parent="WIyWlLk6GJQsqaUBKTNV-1">
          <mxGeometry x="552" y="1070" width="120" height="40" as="geometry" />
        </mxCell>
        <mxCell id="MnV9GLGx5AJl5u8KH2vK-68" value="No" style="edgeStyle=orthogonalEdgeStyle;rounded=0;orthogonalLoop=1;jettySize=auto;html=1;entryX=0.5;entryY=0;entryDx=0;entryDy=0;" edge="1" parent="WIyWlLk6GJQsqaUBKTNV-1" source="MnV9GLGx5AJl5u8KH2vK-70" target="MnV9GLGx5AJl5u8KH2vK-73">
          <mxGeometry x="-0.2" y="10" relative="1" as="geometry">
            <mxPoint x="452" y="1250" as="targetPoint" />
            <mxPoint as="offset" />
          </mxGeometry>
        </mxCell>
        <mxCell id="MnV9GLGx5AJl5u8KH2vK-69" value="Yes" style="edgeStyle=orthogonalEdgeStyle;rounded=0;orthogonalLoop=1;jettySize=auto;html=1;" edge="1" parent="WIyWlLk6GJQsqaUBKTNV-1" source="MnV9GLGx5AJl5u8KH2vK-70" target="MnV9GLGx5AJl5u8KH2vK-72">
          <mxGeometry x="0.0476" y="-10" relative="1" as="geometry">
            <mxPoint as="offset" />
          </mxGeometry>
        </mxCell>
        <mxCell id="MnV9GLGx5AJl5u8KH2vK-70" value="Exceeds 10 Plants?" style="rhombus;whiteSpace=wrap;html=1;shadow=0;fontFamily=Helvetica;fontSize=12;align=center;strokeWidth=1;spacing=6;spacingTop=-4;" vertex="1" parent="WIyWlLk6GJQsqaUBKTNV-1">
          <mxGeometry x="252" y="1190" width="100" height="80" as="geometry" />
        </mxCell>
        <mxCell id="MnV9GLGx5AJl5u8KH2vK-71" value="" style="edgeStyle=orthogonalEdgeStyle;rounded=0;orthogonalLoop=1;jettySize=auto;html=1;entryX=0;entryY=0.5;entryDx=0;entryDy=0;" edge="1" parent="WIyWlLk6GJQsqaUBKTNV-1" source="MnV9GLGx5AJl5u8KH2vK-72" target="MnV9GLGx5AJl5u8KH2vK-73">
          <mxGeometry relative="1" as="geometry">
            <mxPoint x="402" y="1290" as="targetPoint" />
            <Array as="points">
              <mxPoint x="150" y="1290" />
              <mxPoint x="392" y="1290" />
            </Array>
          </mxGeometry>
        </mxCell>
        <mxCell id="MnV9GLGx5AJl5u8KH2vK-72" value="Replace Lowest Health Plant" style="rounded=1;whiteSpace=wrap;html=1;fontSize=12;glass=0;strokeWidth=1;shadow=0;" vertex="1" parent="WIyWlLk6GJQsqaUBKTNV-1">
          <mxGeometry x="70" y="1210" width="120" height="40" as="geometry" />
        </mxCell>
        <mxCell id="MnV9GLGx5AJl5u8KH2vK-86" value="" style="edgeStyle=orthogonalEdgeStyle;rounded=0;orthogonalLoop=1;jettySize=auto;html=1;" edge="1" parent="WIyWlLk6GJQsqaUBKTNV-1" source="MnV9GLGx5AJl5u8KH2vK-73" target="MnV9GLGx5AJl5u8KH2vK-77">
          <mxGeometry relative="1" as="geometry" />
        </mxCell>
        <mxCell id="MnV9GLGx5AJl5u8KH2vK-73" value="Turn 5" style="rounded=1;whiteSpace=wrap;html=1;fontSize=12;glass=0;strokeWidth=1;shadow=0;" vertex="1" parent="WIyWlLk6GJQsqaUBKTNV-1">
          <mxGeometry x="392" y="1270" width="120" height="40" as="geometry" />
        </mxCell>
        <mxCell id="MnV9GLGx5AJl5u8KH2vK-75" value="Keep" style="rounded=0;html=1;jettySize=auto;orthogonalLoop=1;fontSize=11;endArrow=block;endFill=0;endSize=8;strokeWidth=1;shadow=0;labelBackgroundColor=none;edgeStyle=orthogonalEdgeStyle;exitX=0.5;exitY=1;exitDx=0;exitDy=0;" edge="1" parent="WIyWlLk6GJQsqaUBKTNV-1" source="MnV9GLGx5AJl5u8KH2vK-77" target="MnV9GLGx5AJl5u8KH2vK-82">
          <mxGeometry x="-0.4286" y="-10" relative="1" as="geometry">
            <mxPoint as="offset" />
            <mxPoint x="452" y="1490" as="targetPoint" />
            <Array as="points">
              <mxPoint x="452" y="1460" />
              <mxPoint x="302" y="1460" />
            </Array>
          </mxGeometry>
        </mxCell>
        <mxCell id="MnV9GLGx5AJl5u8KH2vK-76" value="Discard" style="edgeStyle=orthogonalEdgeStyle;rounded=0;html=1;jettySize=auto;orthogonalLoop=1;fontSize=11;endArrow=block;endFill=0;endSize=8;strokeWidth=1;shadow=0;labelBackgroundColor=none;" edge="1" parent="WIyWlLk6GJQsqaUBKTNV-1" source="MnV9GLGx5AJl5u8KH2vK-77" target="MnV9GLGx5AJl5u8KH2vK-79">
          <mxGeometry y="10" relative="1" as="geometry">
            <mxPoint as="offset" />
          </mxGeometry>
        </mxCell>
        <mxCell id="MnV9GLGx5AJl5u8KH2vK-77" value="Plant 6" style="rhombus;whiteSpace=wrap;html=1;shadow=0;fontFamily=Helvetica;fontSize=12;align=center;strokeWidth=1;spacing=6;spacingTop=-4;" vertex="1" parent="WIyWlLk6GJQsqaUBKTNV-1">
          <mxGeometry x="402" y="1360" width="100" height="80" as="geometry" />
        </mxCell>
        <mxCell id="MnV9GLGx5AJl5u8KH2vK-78" value="" style="edgeStyle=orthogonalEdgeStyle;rounded=0;orthogonalLoop=1;jettySize=auto;html=1;entryX=1;entryY=0.5;entryDx=0;entryDy=0;" edge="1" parent="WIyWlLk6GJQsqaUBKTNV-1" source="MnV9GLGx5AJl5u8KH2vK-79" target="MnV9GLGx5AJl5u8KH2vK-85">
          <mxGeometry relative="1" as="geometry">
            <mxPoint x="502" y="1600" as="targetPoint" />
            <Array as="points">
              <mxPoint x="612" y="1600" />
              <mxPoint x="512" y="1600" />
            </Array>
          </mxGeometry>
        </mxCell>
        <mxCell id="MnV9GLGx5AJl5u8KH2vK-79" value="Plant Discarded" style="rounded=1;whiteSpace=wrap;html=1;fontSize=12;glass=0;strokeWidth=1;shadow=0;" vertex="1" parent="WIyWlLk6GJQsqaUBKTNV-1">
          <mxGeometry x="552" y="1380" width="120" height="40" as="geometry" />
        </mxCell>
        <mxCell id="MnV9GLGx5AJl5u8KH2vK-80" value="No" style="edgeStyle=orthogonalEdgeStyle;rounded=0;orthogonalLoop=1;jettySize=auto;html=1;entryX=0.5;entryY=0;entryDx=0;entryDy=0;" edge="1" parent="WIyWlLk6GJQsqaUBKTNV-1" source="MnV9GLGx5AJl5u8KH2vK-82" target="MnV9GLGx5AJl5u8KH2vK-85">
          <mxGeometry x="-0.2" y="10" relative="1" as="geometry">
            <mxPoint x="452" y="1560" as="targetPoint" />
            <mxPoint as="offset" />
          </mxGeometry>
        </mxCell>
        <mxCell id="MnV9GLGx5AJl5u8KH2vK-81" value="Yes" style="edgeStyle=orthogonalEdgeStyle;rounded=0;orthogonalLoop=1;jettySize=auto;html=1;" edge="1" parent="WIyWlLk6GJQsqaUBKTNV-1" source="MnV9GLGx5AJl5u8KH2vK-82" target="MnV9GLGx5AJl5u8KH2vK-84">
          <mxGeometry x="0.0476" y="-10" relative="1" as="geometry">
            <mxPoint as="offset" />
          </mxGeometry>
        </mxCell>
        <mxCell id="MnV9GLGx5AJl5u8KH2vK-82" value="Exceeds 10 Plants?" style="rhombus;whiteSpace=wrap;html=1;shadow=0;fontFamily=Helvetica;fontSize=12;align=center;strokeWidth=1;spacing=6;spacingTop=-4;" vertex="1" parent="WIyWlLk6GJQsqaUBKTNV-1">
          <mxGeometry x="252" y="1500" width="100" height="80" as="geometry" />
        </mxCell>
        <mxCell id="MnV9GLGx5AJl5u8KH2vK-83" value="" style="edgeStyle=orthogonalEdgeStyle;rounded=0;orthogonalLoop=1;jettySize=auto;html=1;entryX=0;entryY=0.5;entryDx=0;entryDy=0;" edge="1" parent="WIyWlLk6GJQsqaUBKTNV-1" source="MnV9GLGx5AJl5u8KH2vK-84" target="MnV9GLGx5AJl5u8KH2vK-85">
          <mxGeometry relative="1" as="geometry">
            <mxPoint x="402" y="1600" as="targetPoint" />
            <Array as="points">
              <mxPoint x="150" y="1600" />
              <mxPoint x="392" y="1600" />
            </Array>
          </mxGeometry>
        </mxCell>
        <mxCell id="MnV9GLGx5AJl5u8KH2vK-84" value="Replace Lowest Health Plant" style="rounded=1;whiteSpace=wrap;html=1;fontSize=12;glass=0;strokeWidth=1;shadow=0;" vertex="1" parent="WIyWlLk6GJQsqaUBKTNV-1">
          <mxGeometry x="70" y="1520" width="120" height="40" as="geometry" />
        </mxCell>
        <mxCell id="MnV9GLGx5AJl5u8KH2vK-98" value="" style="edgeStyle=orthogonalEdgeStyle;rounded=0;orthogonalLoop=1;jettySize=auto;html=1;" edge="1" parent="WIyWlLk6GJQsqaUBKTNV-1" source="MnV9GLGx5AJl5u8KH2vK-85" target="MnV9GLGx5AJl5u8KH2vK-89">
          <mxGeometry relative="1" as="geometry" />
        </mxCell>
        <mxCell id="MnV9GLGx5AJl5u8KH2vK-85" value="Turn 6" style="rounded=1;whiteSpace=wrap;html=1;fontSize=12;glass=0;strokeWidth=1;shadow=0;" vertex="1" parent="WIyWlLk6GJQsqaUBKTNV-1">
          <mxGeometry x="392" y="1580" width="120" height="40" as="geometry" />
        </mxCell>
        <mxCell id="MnV9GLGx5AJl5u8KH2vK-87" value="Keep" style="rounded=0;html=1;jettySize=auto;orthogonalLoop=1;fontSize=11;endArrow=block;endFill=0;endSize=8;strokeWidth=1;shadow=0;labelBackgroundColor=none;edgeStyle=orthogonalEdgeStyle;exitX=0.5;exitY=1;exitDx=0;exitDy=0;" edge="1" parent="WIyWlLk6GJQsqaUBKTNV-1" source="MnV9GLGx5AJl5u8KH2vK-89" target="MnV9GLGx5AJl5u8KH2vK-94">
          <mxGeometry x="-0.4286" y="-10" relative="1" as="geometry">
            <mxPoint as="offset" />
            <mxPoint x="452" y="1780" as="targetPoint" />
            <Array as="points">
              <mxPoint x="452" y="1750" />
              <mxPoint x="302" y="1750" />
            </Array>
          </mxGeometry>
        </mxCell>
        <mxCell id="MnV9GLGx5AJl5u8KH2vK-88" value="Discard" style="edgeStyle=orthogonalEdgeStyle;rounded=0;html=1;jettySize=auto;orthogonalLoop=1;fontSize=11;endArrow=block;endFill=0;endSize=8;strokeWidth=1;shadow=0;labelBackgroundColor=none;" edge="1" parent="WIyWlLk6GJQsqaUBKTNV-1" source="MnV9GLGx5AJl5u8KH2vK-89" target="MnV9GLGx5AJl5u8KH2vK-91">
          <mxGeometry y="10" relative="1" as="geometry">
            <mxPoint as="offset" />
          </mxGeometry>
        </mxCell>
        <mxCell id="MnV9GLGx5AJl5u8KH2vK-89" value="Plant 7" style="rhombus;whiteSpace=wrap;html=1;shadow=0;fontFamily=Helvetica;fontSize=12;align=center;strokeWidth=1;spacing=6;spacingTop=-4;" vertex="1" parent="WIyWlLk6GJQsqaUBKTNV-1">
          <mxGeometry x="402" y="1650" width="100" height="80" as="geometry" />
        </mxCell>
        <mxCell id="MnV9GLGx5AJl5u8KH2vK-90" value="" style="edgeStyle=orthogonalEdgeStyle;rounded=0;orthogonalLoop=1;jettySize=auto;html=1;entryX=1;entryY=0.5;entryDx=0;entryDy=0;" edge="1" parent="WIyWlLk6GJQsqaUBKTNV-1" source="MnV9GLGx5AJl5u8KH2vK-91" target="MnV9GLGx5AJl5u8KH2vK-97">
          <mxGeometry relative="1" as="geometry">
            <mxPoint x="502" y="1890" as="targetPoint" />
            <Array as="points">
              <mxPoint x="612" y="1890" />
              <mxPoint x="512" y="1890" />
            </Array>
          </mxGeometry>
        </mxCell>
        <mxCell id="MnV9GLGx5AJl5u8KH2vK-91" value="Plant Discarded" style="rounded=1;whiteSpace=wrap;html=1;fontSize=12;glass=0;strokeWidth=1;shadow=0;" vertex="1" parent="WIyWlLk6GJQsqaUBKTNV-1">
          <mxGeometry x="552" y="1670" width="120" height="40" as="geometry" />
        </mxCell>
        <mxCell id="MnV9GLGx5AJl5u8KH2vK-92" value="No" style="edgeStyle=orthogonalEdgeStyle;rounded=0;orthogonalLoop=1;jettySize=auto;html=1;entryX=0.5;entryY=0;entryDx=0;entryDy=0;" edge="1" parent="WIyWlLk6GJQsqaUBKTNV-1" source="MnV9GLGx5AJl5u8KH2vK-94" target="MnV9GLGx5AJl5u8KH2vK-97">
          <mxGeometry x="-0.2" y="10" relative="1" as="geometry">
            <mxPoint x="452" y="1850" as="targetPoint" />
            <mxPoint as="offset" />
          </mxGeometry>
        </mxCell>
        <mxCell id="MnV9GLGx5AJl5u8KH2vK-93" value="Yes" style="edgeStyle=orthogonalEdgeStyle;rounded=0;orthogonalLoop=1;jettySize=auto;html=1;" edge="1" parent="WIyWlLk6GJQsqaUBKTNV-1" source="MnV9GLGx5AJl5u8KH2vK-94" target="MnV9GLGx5AJl5u8KH2vK-96">
          <mxGeometry x="0.0476" y="-10" relative="1" as="geometry">
            <mxPoint as="offset" />
          </mxGeometry>
        </mxCell>
        <mxCell id="MnV9GLGx5AJl5u8KH2vK-94" value="Exceeds 10 Plants?" style="rhombus;whiteSpace=wrap;html=1;shadow=0;fontFamily=Helvetica;fontSize=12;align=center;strokeWidth=1;spacing=6;spacingTop=-4;" vertex="1" parent="WIyWlLk6GJQsqaUBKTNV-1">
          <mxGeometry x="252" y="1790" width="100" height="80" as="geometry" />
        </mxCell>
        <mxCell id="MnV9GLGx5AJl5u8KH2vK-95" value="" style="edgeStyle=orthogonalEdgeStyle;rounded=0;orthogonalLoop=1;jettySize=auto;html=1;entryX=0;entryY=0.5;entryDx=0;entryDy=0;" edge="1" parent="WIyWlLk6GJQsqaUBKTNV-1" source="MnV9GLGx5AJl5u8KH2vK-96" target="MnV9GLGx5AJl5u8KH2vK-97">
          <mxGeometry relative="1" as="geometry">
            <mxPoint x="402" y="1890" as="targetPoint" />
            <Array as="points">
              <mxPoint x="150" y="1890" />
              <mxPoint x="392" y="1890" />
            </Array>
          </mxGeometry>
        </mxCell>
        <mxCell id="MnV9GLGx5AJl5u8KH2vK-96" value="Replace Lowest Health Plant" style="rounded=1;whiteSpace=wrap;html=1;fontSize=12;glass=0;strokeWidth=1;shadow=0;" vertex="1" parent="WIyWlLk6GJQsqaUBKTNV-1">
          <mxGeometry x="70" y="1810" width="120" height="40" as="geometry" />
        </mxCell>
        <mxCell id="MnV9GLGx5AJl5u8KH2vK-110" value="" style="edgeStyle=orthogonalEdgeStyle;rounded=0;orthogonalLoop=1;jettySize=auto;html=1;" edge="1" parent="WIyWlLk6GJQsqaUBKTNV-1" source="MnV9GLGx5AJl5u8KH2vK-97" target="MnV9GLGx5AJl5u8KH2vK-101">
          <mxGeometry relative="1" as="geometry" />
        </mxCell>
        <mxCell id="MnV9GLGx5AJl5u8KH2vK-97" value="Turn 8" style="rounded=1;whiteSpace=wrap;html=1;fontSize=12;glass=0;strokeWidth=1;shadow=0;" vertex="1" parent="WIyWlLk6GJQsqaUBKTNV-1">
          <mxGeometry x="392" y="1870" width="120" height="40" as="geometry" />
        </mxCell>
        <mxCell id="MnV9GLGx5AJl5u8KH2vK-99" value="Keep" style="rounded=0;html=1;jettySize=auto;orthogonalLoop=1;fontSize=11;endArrow=block;endFill=0;endSize=8;strokeWidth=1;shadow=0;labelBackgroundColor=none;edgeStyle=orthogonalEdgeStyle;exitX=0.5;exitY=1;exitDx=0;exitDy=0;" edge="1" parent="WIyWlLk6GJQsqaUBKTNV-1" source="MnV9GLGx5AJl5u8KH2vK-101" target="MnV9GLGx5AJl5u8KH2vK-106">
          <mxGeometry x="-0.4286" y="-10" relative="1" as="geometry">
            <mxPoint as="offset" />
            <mxPoint x="452" y="2070" as="targetPoint" />
            <Array as="points">
              <mxPoint x="452" y="2040" />
              <mxPoint x="302" y="2040" />
            </Array>
          </mxGeometry>
        </mxCell>
        <mxCell id="MnV9GLGx5AJl5u8KH2vK-100" value="Discard" style="edgeStyle=orthogonalEdgeStyle;rounded=0;html=1;jettySize=auto;orthogonalLoop=1;fontSize=11;endArrow=block;endFill=0;endSize=8;strokeWidth=1;shadow=0;labelBackgroundColor=none;" edge="1" parent="WIyWlLk6GJQsqaUBKTNV-1" source="MnV9GLGx5AJl5u8KH2vK-101" target="MnV9GLGx5AJl5u8KH2vK-103">
          <mxGeometry y="10" relative="1" as="geometry">
            <mxPoint as="offset" />
          </mxGeometry>
        </mxCell>
        <mxCell id="MnV9GLGx5AJl5u8KH2vK-101" value="Plant 9" style="rhombus;whiteSpace=wrap;html=1;shadow=0;fontFamily=Helvetica;fontSize=12;align=center;strokeWidth=1;spacing=6;spacingTop=-4;" vertex="1" parent="WIyWlLk6GJQsqaUBKTNV-1">
          <mxGeometry x="402" y="1940" width="100" height="80" as="geometry" />
        </mxCell>
        <mxCell id="MnV9GLGx5AJl5u8KH2vK-102" value="" style="edgeStyle=orthogonalEdgeStyle;rounded=0;orthogonalLoop=1;jettySize=auto;html=1;entryX=1;entryY=0.5;entryDx=0;entryDy=0;" edge="1" parent="WIyWlLk6GJQsqaUBKTNV-1" source="MnV9GLGx5AJl5u8KH2vK-103" target="MnV9GLGx5AJl5u8KH2vK-109">
          <mxGeometry relative="1" as="geometry">
            <mxPoint x="502" y="2180" as="targetPoint" />
            <Array as="points">
              <mxPoint x="612" y="2180" />
              <mxPoint x="512" y="2180" />
            </Array>
          </mxGeometry>
        </mxCell>
        <mxCell id="MnV9GLGx5AJl5u8KH2vK-103" value="Plant Discarded" style="rounded=1;whiteSpace=wrap;html=1;fontSize=12;glass=0;strokeWidth=1;shadow=0;" vertex="1" parent="WIyWlLk6GJQsqaUBKTNV-1">
          <mxGeometry x="552" y="1960" width="120" height="40" as="geometry" />
        </mxCell>
        <mxCell id="MnV9GLGx5AJl5u8KH2vK-104" value="No" style="edgeStyle=orthogonalEdgeStyle;rounded=0;orthogonalLoop=1;jettySize=auto;html=1;entryX=0.5;entryY=0;entryDx=0;entryDy=0;" edge="1" parent="WIyWlLk6GJQsqaUBKTNV-1" source="MnV9GLGx5AJl5u8KH2vK-106" target="MnV9GLGx5AJl5u8KH2vK-109">
          <mxGeometry x="-0.2" y="10" relative="1" as="geometry">
            <mxPoint x="452" y="2140" as="targetPoint" />
            <mxPoint as="offset" />
          </mxGeometry>
        </mxCell>
        <mxCell id="MnV9GLGx5AJl5u8KH2vK-105" value="Yes" style="edgeStyle=orthogonalEdgeStyle;rounded=0;orthogonalLoop=1;jettySize=auto;html=1;" edge="1" parent="WIyWlLk6GJQsqaUBKTNV-1" source="MnV9GLGx5AJl5u8KH2vK-106" target="MnV9GLGx5AJl5u8KH2vK-108">
          <mxGeometry x="0.0476" y="-10" relative="1" as="geometry">
            <mxPoint as="offset" />
          </mxGeometry>
        </mxCell>
        <mxCell id="MnV9GLGx5AJl5u8KH2vK-106" value="Exceeds 10 Plants?" style="rhombus;whiteSpace=wrap;html=1;shadow=0;fontFamily=Helvetica;fontSize=12;align=center;strokeWidth=1;spacing=6;spacingTop=-4;" vertex="1" parent="WIyWlLk6GJQsqaUBKTNV-1">
          <mxGeometry x="252" y="2080" width="100" height="80" as="geometry" />
        </mxCell>
        <mxCell id="MnV9GLGx5AJl5u8KH2vK-107" value="" style="edgeStyle=orthogonalEdgeStyle;rounded=0;orthogonalLoop=1;jettySize=auto;html=1;entryX=0;entryY=0.5;entryDx=0;entryDy=0;" edge="1" parent="WIyWlLk6GJQsqaUBKTNV-1" source="MnV9GLGx5AJl5u8KH2vK-108" target="MnV9GLGx5AJl5u8KH2vK-109">
          <mxGeometry relative="1" as="geometry">
            <mxPoint x="402" y="2180" as="targetPoint" />
            <Array as="points">
              <mxPoint x="150" y="2180" />
              <mxPoint x="392" y="2180" />
            </Array>
          </mxGeometry>
        </mxCell>
        <mxCell id="MnV9GLGx5AJl5u8KH2vK-108" value="Replace Lowest Health Plant" style="rounded=1;whiteSpace=wrap;html=1;fontSize=12;glass=0;strokeWidth=1;shadow=0;" vertex="1" parent="WIyWlLk6GJQsqaUBKTNV-1">
          <mxGeometry x="70" y="2100" width="120" height="40" as="geometry" />
        </mxCell>
        <mxCell id="MnV9GLGx5AJl5u8KH2vK-122" value="" style="edgeStyle=orthogonalEdgeStyle;rounded=0;orthogonalLoop=1;jettySize=auto;html=1;" edge="1" parent="WIyWlLk6GJQsqaUBKTNV-1" source="MnV9GLGx5AJl5u8KH2vK-109" target="MnV9GLGx5AJl5u8KH2vK-113">
          <mxGeometry relative="1" as="geometry" />
        </mxCell>
        <mxCell id="MnV9GLGx5AJl5u8KH2vK-109" value="Turn 10" style="rounded=1;whiteSpace=wrap;html=1;fontSize=12;glass=0;strokeWidth=1;shadow=0;" vertex="1" parent="WIyWlLk6GJQsqaUBKTNV-1">
          <mxGeometry x="392" y="2160" width="120" height="40" as="geometry" />
        </mxCell>
        <mxCell id="MnV9GLGx5AJl5u8KH2vK-111" value="Keep" style="rounded=0;html=1;jettySize=auto;orthogonalLoop=1;fontSize=11;endArrow=block;endFill=0;endSize=8;strokeWidth=1;shadow=0;labelBackgroundColor=none;edgeStyle=orthogonalEdgeStyle;exitX=0.5;exitY=1;exitDx=0;exitDy=0;" edge="1" parent="WIyWlLk6GJQsqaUBKTNV-1" source="MnV9GLGx5AJl5u8KH2vK-113" target="MnV9GLGx5AJl5u8KH2vK-118">
          <mxGeometry x="-0.4286" y="-10" relative="1" as="geometry">
            <mxPoint as="offset" />
            <mxPoint x="452" y="2370" as="targetPoint" />
            <Array as="points">
              <mxPoint x="452" y="2340" />
              <mxPoint x="302" y="2340" />
            </Array>
          </mxGeometry>
        </mxCell>
        <mxCell id="MnV9GLGx5AJl5u8KH2vK-112" value="Discard" style="edgeStyle=orthogonalEdgeStyle;rounded=0;html=1;jettySize=auto;orthogonalLoop=1;fontSize=11;endArrow=block;endFill=0;endSize=8;strokeWidth=1;shadow=0;labelBackgroundColor=none;" edge="1" parent="WIyWlLk6GJQsqaUBKTNV-1" source="MnV9GLGx5AJl5u8KH2vK-113" target="MnV9GLGx5AJl5u8KH2vK-115">
          <mxGeometry y="10" relative="1" as="geometry">
            <mxPoint as="offset" />
          </mxGeometry>
        </mxCell>
        <mxCell id="MnV9GLGx5AJl5u8KH2vK-113" value="Plant 11" style="rhombus;whiteSpace=wrap;html=1;shadow=0;fontFamily=Helvetica;fontSize=12;align=center;strokeWidth=1;spacing=6;spacingTop=-4;" vertex="1" parent="WIyWlLk6GJQsqaUBKTNV-1">
          <mxGeometry x="402" y="2240" width="100" height="80" as="geometry" />
        </mxCell>
        <mxCell id="MnV9GLGx5AJl5u8KH2vK-114" value="" style="edgeStyle=orthogonalEdgeStyle;rounded=0;orthogonalLoop=1;jettySize=auto;html=1;entryX=1;entryY=0.5;entryDx=0;entryDy=0;" edge="1" parent="WIyWlLk6GJQsqaUBKTNV-1" source="MnV9GLGx5AJl5u8KH2vK-115" target="MnV9GLGx5AJl5u8KH2vK-121">
          <mxGeometry relative="1" as="geometry">
            <mxPoint x="502" y="2480" as="targetPoint" />
            <Array as="points">
              <mxPoint x="612" y="2480" />
              <mxPoint x="512" y="2480" />
            </Array>
          </mxGeometry>
        </mxCell>
        <mxCell id="MnV9GLGx5AJl5u8KH2vK-115" value="Plant Discarded" style="rounded=1;whiteSpace=wrap;html=1;fontSize=12;glass=0;strokeWidth=1;shadow=0;" vertex="1" parent="WIyWlLk6GJQsqaUBKTNV-1">
          <mxGeometry x="552" y="2260" width="120" height="40" as="geometry" />
        </mxCell>
        <mxCell id="MnV9GLGx5AJl5u8KH2vK-116" value="No" style="edgeStyle=orthogonalEdgeStyle;rounded=0;orthogonalLoop=1;jettySize=auto;html=1;entryX=0.5;entryY=0;entryDx=0;entryDy=0;" edge="1" parent="WIyWlLk6GJQsqaUBKTNV-1" source="MnV9GLGx5AJl5u8KH2vK-118" target="MnV9GLGx5AJl5u8KH2vK-121">
          <mxGeometry x="-0.2" y="10" relative="1" as="geometry">
            <mxPoint x="452" y="2440" as="targetPoint" />
            <mxPoint as="offset" />
          </mxGeometry>
        </mxCell>
        <mxCell id="MnV9GLGx5AJl5u8KH2vK-117" value="Yes" style="edgeStyle=orthogonalEdgeStyle;rounded=0;orthogonalLoop=1;jettySize=auto;html=1;" edge="1" parent="WIyWlLk6GJQsqaUBKTNV-1" source="MnV9GLGx5AJl5u8KH2vK-118" target="MnV9GLGx5AJl5u8KH2vK-120">
          <mxGeometry x="0.0476" y="-10" relative="1" as="geometry">
            <mxPoint as="offset" />
          </mxGeometry>
        </mxCell>
        <mxCell id="MnV9GLGx5AJl5u8KH2vK-118" value="Exceeds 10 Plants?" style="rhombus;whiteSpace=wrap;html=1;shadow=0;fontFamily=Helvetica;fontSize=12;align=center;strokeWidth=1;spacing=6;spacingTop=-4;" vertex="1" parent="WIyWlLk6GJQsqaUBKTNV-1">
          <mxGeometry x="252" y="2380" width="100" height="80" as="geometry" />
        </mxCell>
        <mxCell id="MnV9GLGx5AJl5u8KH2vK-119" value="" style="edgeStyle=orthogonalEdgeStyle;rounded=0;orthogonalLoop=1;jettySize=auto;html=1;entryX=0;entryY=0.5;entryDx=0;entryDy=0;" edge="1" parent="WIyWlLk6GJQsqaUBKTNV-1" source="MnV9GLGx5AJl5u8KH2vK-120" target="MnV9GLGx5AJl5u8KH2vK-121">
          <mxGeometry relative="1" as="geometry">
            <mxPoint x="402" y="2480" as="targetPoint" />
            <Array as="points">
              <mxPoint x="150" y="2480" />
              <mxPoint x="392" y="2480" />
            </Array>
          </mxGeometry>
        </mxCell>
        <mxCell id="MnV9GLGx5AJl5u8KH2vK-120" value="Replace Lowest Health Plant" style="rounded=1;whiteSpace=wrap;html=1;fontSize=12;glass=0;strokeWidth=1;shadow=0;" vertex="1" parent="WIyWlLk6GJQsqaUBKTNV-1">
          <mxGeometry x="70" y="2400" width="120" height="40" as="geometry" />
        </mxCell>
        <mxCell id="MnV9GLGx5AJl5u8KH2vK-147" value="" style="edgeStyle=orthogonalEdgeStyle;rounded=0;orthogonalLoop=1;jettySize=auto;html=1;" edge="1" parent="WIyWlLk6GJQsqaUBKTNV-1" source="MnV9GLGx5AJl5u8KH2vK-121" target="MnV9GLGx5AJl5u8KH2vK-138">
          <mxGeometry relative="1" as="geometry" />
        </mxCell>
        <mxCell id="MnV9GLGx5AJl5u8KH2vK-121" value="Turn 12" style="rounded=1;whiteSpace=wrap;html=1;fontSize=12;glass=0;strokeWidth=1;shadow=0;" vertex="1" parent="WIyWlLk6GJQsqaUBKTNV-1">
          <mxGeometry x="392" y="2460" width="120" height="40" as="geometry" />
        </mxCell>
        <mxCell id="MnV9GLGx5AJl5u8KH2vK-136" value="Keep" style="rounded=0;html=1;jettySize=auto;orthogonalLoop=1;fontSize=11;endArrow=block;endFill=0;endSize=8;strokeWidth=1;shadow=0;labelBackgroundColor=none;edgeStyle=orthogonalEdgeStyle;exitX=0.5;exitY=1;exitDx=0;exitDy=0;" edge="1" parent="WIyWlLk6GJQsqaUBKTNV-1" source="MnV9GLGx5AJl5u8KH2vK-138" target="MnV9GLGx5AJl5u8KH2vK-143">
          <mxGeometry x="-0.4286" y="-10" relative="1" as="geometry">
            <mxPoint as="offset" />
            <mxPoint x="452" y="2670" as="targetPoint" />
            <Array as="points">
              <mxPoint x="452" y="2640" />
              <mxPoint x="302" y="2640" />
            </Array>
          </mxGeometry>
        </mxCell>
        <mxCell id="MnV9GLGx5AJl5u8KH2vK-137" value="Discard" style="edgeStyle=orthogonalEdgeStyle;rounded=0;html=1;jettySize=auto;orthogonalLoop=1;fontSize=11;endArrow=block;endFill=0;endSize=8;strokeWidth=1;shadow=0;labelBackgroundColor=none;" edge="1" parent="WIyWlLk6GJQsqaUBKTNV-1" source="MnV9GLGx5AJl5u8KH2vK-138" target="MnV9GLGx5AJl5u8KH2vK-140">
          <mxGeometry y="10" relative="1" as="geometry">
            <mxPoint as="offset" />
          </mxGeometry>
        </mxCell>
        <mxCell id="MnV9GLGx5AJl5u8KH2vK-138" value="Plant 13" style="rhombus;whiteSpace=wrap;html=1;shadow=0;fontFamily=Helvetica;fontSize=12;align=center;strokeWidth=1;spacing=6;spacingTop=-4;" vertex="1" parent="WIyWlLk6GJQsqaUBKTNV-1">
          <mxGeometry x="402" y="2540" width="100" height="80" as="geometry" />
        </mxCell>
        <mxCell id="MnV9GLGx5AJl5u8KH2vK-139" value="" style="edgeStyle=orthogonalEdgeStyle;rounded=0;orthogonalLoop=1;jettySize=auto;html=1;entryX=1;entryY=0.5;entryDx=0;entryDy=0;" edge="1" parent="WIyWlLk6GJQsqaUBKTNV-1" source="MnV9GLGx5AJl5u8KH2vK-140" target="MnV9GLGx5AJl5u8KH2vK-146">
          <mxGeometry relative="1" as="geometry">
            <mxPoint x="502" y="2780" as="targetPoint" />
            <Array as="points">
              <mxPoint x="612" y="2780" />
              <mxPoint x="512" y="2780" />
            </Array>
          </mxGeometry>
        </mxCell>
        <mxCell id="MnV9GLGx5AJl5u8KH2vK-140" value="Plant Discarded" style="rounded=1;whiteSpace=wrap;html=1;fontSize=12;glass=0;strokeWidth=1;shadow=0;" vertex="1" parent="WIyWlLk6GJQsqaUBKTNV-1">
          <mxGeometry x="552" y="2560" width="120" height="40" as="geometry" />
        </mxCell>
        <mxCell id="MnV9GLGx5AJl5u8KH2vK-141" value="No" style="edgeStyle=orthogonalEdgeStyle;rounded=0;orthogonalLoop=1;jettySize=auto;html=1;entryX=0.5;entryY=0;entryDx=0;entryDy=0;" edge="1" parent="WIyWlLk6GJQsqaUBKTNV-1" source="MnV9GLGx5AJl5u8KH2vK-143" target="MnV9GLGx5AJl5u8KH2vK-146">
          <mxGeometry x="-0.2" y="10" relative="1" as="geometry">
            <mxPoint x="452" y="2740" as="targetPoint" />
            <mxPoint as="offset" />
          </mxGeometry>
        </mxCell>
        <mxCell id="MnV9GLGx5AJl5u8KH2vK-142" value="Yes" style="edgeStyle=orthogonalEdgeStyle;rounded=0;orthogonalLoop=1;jettySize=auto;html=1;" edge="1" parent="WIyWlLk6GJQsqaUBKTNV-1" source="MnV9GLGx5AJl5u8KH2vK-143" target="MnV9GLGx5AJl5u8KH2vK-145">
          <mxGeometry x="0.0476" y="-10" relative="1" as="geometry">
            <mxPoint as="offset" />
          </mxGeometry>
        </mxCell>
        <mxCell id="MnV9GLGx5AJl5u8KH2vK-143" value="Exceeds 10 Plants?" style="rhombus;whiteSpace=wrap;html=1;shadow=0;fontFamily=Helvetica;fontSize=12;align=center;strokeWidth=1;spacing=6;spacingTop=-4;" vertex="1" parent="WIyWlLk6GJQsqaUBKTNV-1">
          <mxGeometry x="252" y="2680" width="100" height="80" as="geometry" />
        </mxCell>
        <mxCell id="MnV9GLGx5AJl5u8KH2vK-144" value="" style="edgeStyle=orthogonalEdgeStyle;rounded=0;orthogonalLoop=1;jettySize=auto;html=1;entryX=0;entryY=0.5;entryDx=0;entryDy=0;" edge="1" parent="WIyWlLk6GJQsqaUBKTNV-1" source="MnV9GLGx5AJl5u8KH2vK-145" target="MnV9GLGx5AJl5u8KH2vK-146">
          <mxGeometry relative="1" as="geometry">
            <mxPoint x="402" y="2780" as="targetPoint" />
            <Array as="points">
              <mxPoint x="150" y="2780" />
              <mxPoint x="392" y="2780" />
            </Array>
          </mxGeometry>
        </mxCell>
        <mxCell id="MnV9GLGx5AJl5u8KH2vK-145" value="Replace Lowest Health Plant" style="rounded=1;whiteSpace=wrap;html=1;fontSize=12;glass=0;strokeWidth=1;shadow=0;" vertex="1" parent="WIyWlLk6GJQsqaUBKTNV-1">
          <mxGeometry x="70" y="2700" width="120" height="40" as="geometry" />
        </mxCell>
        <mxCell id="MnV9GLGx5AJl5u8KH2vK-159" value="" style="edgeStyle=orthogonalEdgeStyle;rounded=0;orthogonalLoop=1;jettySize=auto;html=1;" edge="1" parent="WIyWlLk6GJQsqaUBKTNV-1" source="MnV9GLGx5AJl5u8KH2vK-146" target="MnV9GLGx5AJl5u8KH2vK-150">
          <mxGeometry relative="1" as="geometry" />
        </mxCell>
        <mxCell id="MnV9GLGx5AJl5u8KH2vK-146" value="Turn 14" style="rounded=1;whiteSpace=wrap;html=1;fontSize=12;glass=0;strokeWidth=1;shadow=0;" vertex="1" parent="WIyWlLk6GJQsqaUBKTNV-1">
          <mxGeometry x="392" y="2760" width="120" height="40" as="geometry" />
        </mxCell>
        <mxCell id="MnV9GLGx5AJl5u8KH2vK-148" value="Keep" style="rounded=0;html=1;jettySize=auto;orthogonalLoop=1;fontSize=11;endArrow=block;endFill=0;endSize=8;strokeWidth=1;shadow=0;labelBackgroundColor=none;edgeStyle=orthogonalEdgeStyle;exitX=0.5;exitY=1;exitDx=0;exitDy=0;" edge="1" parent="WIyWlLk6GJQsqaUBKTNV-1" source="MnV9GLGx5AJl5u8KH2vK-150" target="MnV9GLGx5AJl5u8KH2vK-155">
          <mxGeometry x="-0.4286" y="-10" relative="1" as="geometry">
            <mxPoint as="offset" />
            <mxPoint x="452" y="2970" as="targetPoint" />
            <Array as="points">
              <mxPoint x="452" y="2940" />
              <mxPoint x="302" y="2940" />
            </Array>
          </mxGeometry>
        </mxCell>
        <mxCell id="MnV9GLGx5AJl5u8KH2vK-149" value="Discard" style="edgeStyle=orthogonalEdgeStyle;rounded=0;html=1;jettySize=auto;orthogonalLoop=1;fontSize=11;endArrow=block;endFill=0;endSize=8;strokeWidth=1;shadow=0;labelBackgroundColor=none;" edge="1" parent="WIyWlLk6GJQsqaUBKTNV-1" source="MnV9GLGx5AJl5u8KH2vK-150" target="MnV9GLGx5AJl5u8KH2vK-152">
          <mxGeometry y="10" relative="1" as="geometry">
            <mxPoint as="offset" />
          </mxGeometry>
        </mxCell>
        <mxCell id="MnV9GLGx5AJl5u8KH2vK-150" value="Plant 15" style="rhombus;whiteSpace=wrap;html=1;shadow=0;fontFamily=Helvetica;fontSize=12;align=center;strokeWidth=1;spacing=6;spacingTop=-4;" vertex="1" parent="WIyWlLk6GJQsqaUBKTNV-1">
          <mxGeometry x="402" y="2840" width="100" height="80" as="geometry" />
        </mxCell>
        <mxCell id="MnV9GLGx5AJl5u8KH2vK-151" value="" style="edgeStyle=orthogonalEdgeStyle;rounded=0;orthogonalLoop=1;jettySize=auto;html=1;entryX=1;entryY=0.5;entryDx=0;entryDy=0;" edge="1" parent="WIyWlLk6GJQsqaUBKTNV-1" source="MnV9GLGx5AJl5u8KH2vK-152" target="MnV9GLGx5AJl5u8KH2vK-158">
          <mxGeometry relative="1" as="geometry">
            <mxPoint x="502" y="3080" as="targetPoint" />
            <Array as="points">
              <mxPoint x="612" y="3080" />
              <mxPoint x="512" y="3080" />
            </Array>
          </mxGeometry>
        </mxCell>
        <mxCell id="MnV9GLGx5AJl5u8KH2vK-152" value="Plant Discarded" style="rounded=1;whiteSpace=wrap;html=1;fontSize=12;glass=0;strokeWidth=1;shadow=0;" vertex="1" parent="WIyWlLk6GJQsqaUBKTNV-1">
          <mxGeometry x="552" y="2860" width="120" height="40" as="geometry" />
        </mxCell>
        <mxCell id="MnV9GLGx5AJl5u8KH2vK-153" value="No" style="edgeStyle=orthogonalEdgeStyle;rounded=0;orthogonalLoop=1;jettySize=auto;html=1;entryX=0.5;entryY=0;entryDx=0;entryDy=0;" edge="1" parent="WIyWlLk6GJQsqaUBKTNV-1" source="MnV9GLGx5AJl5u8KH2vK-155" target="MnV9GLGx5AJl5u8KH2vK-158">
          <mxGeometry x="-0.2" y="10" relative="1" as="geometry">
            <mxPoint x="452" y="3040" as="targetPoint" />
            <mxPoint as="offset" />
          </mxGeometry>
        </mxCell>
        <mxCell id="MnV9GLGx5AJl5u8KH2vK-154" value="Yes" style="edgeStyle=orthogonalEdgeStyle;rounded=0;orthogonalLoop=1;jettySize=auto;html=1;" edge="1" parent="WIyWlLk6GJQsqaUBKTNV-1" source="MnV9GLGx5AJl5u8KH2vK-155" target="MnV9GLGx5AJl5u8KH2vK-157">
          <mxGeometry x="0.0476" y="-10" relative="1" as="geometry">
            <mxPoint as="offset" />
          </mxGeometry>
        </mxCell>
        <mxCell id="MnV9GLGx5AJl5u8KH2vK-155" value="Exceeds 10 Plants?" style="rhombus;whiteSpace=wrap;html=1;shadow=0;fontFamily=Helvetica;fontSize=12;align=center;strokeWidth=1;spacing=6;spacingTop=-4;" vertex="1" parent="WIyWlLk6GJQsqaUBKTNV-1">
          <mxGeometry x="252" y="2980" width="100" height="80" as="geometry" />
        </mxCell>
        <mxCell id="MnV9GLGx5AJl5u8KH2vK-156" value="" style="edgeStyle=orthogonalEdgeStyle;rounded=0;orthogonalLoop=1;jettySize=auto;html=1;entryX=0;entryY=0.5;entryDx=0;entryDy=0;" edge="1" parent="WIyWlLk6GJQsqaUBKTNV-1" source="MnV9GLGx5AJl5u8KH2vK-157" target="MnV9GLGx5AJl5u8KH2vK-158">
          <mxGeometry relative="1" as="geometry">
            <mxPoint x="402" y="3080" as="targetPoint" />
            <Array as="points">
              <mxPoint x="150" y="3080" />
              <mxPoint x="392" y="3080" />
            </Array>
          </mxGeometry>
        </mxCell>
        <mxCell id="MnV9GLGx5AJl5u8KH2vK-157" value="Replace Lowest Health Plant" style="rounded=1;whiteSpace=wrap;html=1;fontSize=12;glass=0;strokeWidth=1;shadow=0;" vertex="1" parent="WIyWlLk6GJQsqaUBKTNV-1">
          <mxGeometry x="70" y="3000" width="120" height="40" as="geometry" />
        </mxCell>
        <mxCell id="MnV9GLGx5AJl5u8KH2vK-171" value="" style="edgeStyle=orthogonalEdgeStyle;rounded=0;orthogonalLoop=1;jettySize=auto;html=1;" edge="1" parent="WIyWlLk6GJQsqaUBKTNV-1" source="MnV9GLGx5AJl5u8KH2vK-158" target="MnV9GLGx5AJl5u8KH2vK-162">
          <mxGeometry relative="1" as="geometry" />
        </mxCell>
        <mxCell id="MnV9GLGx5AJl5u8KH2vK-158" value="Turn 16" style="rounded=1;whiteSpace=wrap;html=1;fontSize=12;glass=0;strokeWidth=1;shadow=0;" vertex="1" parent="WIyWlLk6GJQsqaUBKTNV-1">
          <mxGeometry x="392" y="3060" width="120" height="40" as="geometry" />
        </mxCell>
        <mxCell id="MnV9GLGx5AJl5u8KH2vK-160" value="Keep" style="rounded=0;html=1;jettySize=auto;orthogonalLoop=1;fontSize=11;endArrow=block;endFill=0;endSize=8;strokeWidth=1;shadow=0;labelBackgroundColor=none;edgeStyle=orthogonalEdgeStyle;exitX=0.5;exitY=1;exitDx=0;exitDy=0;" edge="1" parent="WIyWlLk6GJQsqaUBKTNV-1" source="MnV9GLGx5AJl5u8KH2vK-162" target="MnV9GLGx5AJl5u8KH2vK-167">
          <mxGeometry x="-0.4286" y="-10" relative="1" as="geometry">
            <mxPoint as="offset" />
            <mxPoint x="452" y="3260" as="targetPoint" />
            <Array as="points">
              <mxPoint x="452" y="3230" />
              <mxPoint x="302" y="3230" />
            </Array>
          </mxGeometry>
        </mxCell>
        <mxCell id="MnV9GLGx5AJl5u8KH2vK-161" value="Discard" style="edgeStyle=orthogonalEdgeStyle;rounded=0;html=1;jettySize=auto;orthogonalLoop=1;fontSize=11;endArrow=block;endFill=0;endSize=8;strokeWidth=1;shadow=0;labelBackgroundColor=none;" edge="1" parent="WIyWlLk6GJQsqaUBKTNV-1" source="MnV9GLGx5AJl5u8KH2vK-162" target="MnV9GLGx5AJl5u8KH2vK-164">
          <mxGeometry y="10" relative="1" as="geometry">
            <mxPoint as="offset" />
          </mxGeometry>
        </mxCell>
        <mxCell id="MnV9GLGx5AJl5u8KH2vK-162" value="Plant 17" style="rhombus;whiteSpace=wrap;html=1;shadow=0;fontFamily=Helvetica;fontSize=12;align=center;strokeWidth=1;spacing=6;spacingTop=-4;" vertex="1" parent="WIyWlLk6GJQsqaUBKTNV-1">
          <mxGeometry x="402" y="3130" width="100" height="80" as="geometry" />
        </mxCell>
        <mxCell id="MnV9GLGx5AJl5u8KH2vK-163" value="" style="edgeStyle=orthogonalEdgeStyle;rounded=0;orthogonalLoop=1;jettySize=auto;html=1;entryX=1;entryY=0.5;entryDx=0;entryDy=0;" edge="1" parent="WIyWlLk6GJQsqaUBKTNV-1" source="MnV9GLGx5AJl5u8KH2vK-164" target="MnV9GLGx5AJl5u8KH2vK-170">
          <mxGeometry relative="1" as="geometry">
            <mxPoint x="502" y="3370" as="targetPoint" />
            <Array as="points">
              <mxPoint x="612" y="3370" />
              <mxPoint x="512" y="3370" />
            </Array>
          </mxGeometry>
        </mxCell>
        <mxCell id="MnV9GLGx5AJl5u8KH2vK-164" value="Plant Discarded" style="rounded=1;whiteSpace=wrap;html=1;fontSize=12;glass=0;strokeWidth=1;shadow=0;" vertex="1" parent="WIyWlLk6GJQsqaUBKTNV-1">
          <mxGeometry x="552" y="3150" width="120" height="40" as="geometry" />
        </mxCell>
        <mxCell id="MnV9GLGx5AJl5u8KH2vK-165" value="No" style="edgeStyle=orthogonalEdgeStyle;rounded=0;orthogonalLoop=1;jettySize=auto;html=1;entryX=0.5;entryY=0;entryDx=0;entryDy=0;" edge="1" parent="WIyWlLk6GJQsqaUBKTNV-1" source="MnV9GLGx5AJl5u8KH2vK-167" target="MnV9GLGx5AJl5u8KH2vK-170">
          <mxGeometry x="-0.2" y="10" relative="1" as="geometry">
            <mxPoint x="452" y="3330" as="targetPoint" />
            <mxPoint as="offset" />
          </mxGeometry>
        </mxCell>
        <mxCell id="MnV9GLGx5AJl5u8KH2vK-166" value="Yes" style="edgeStyle=orthogonalEdgeStyle;rounded=0;orthogonalLoop=1;jettySize=auto;html=1;" edge="1" parent="WIyWlLk6GJQsqaUBKTNV-1" source="MnV9GLGx5AJl5u8KH2vK-167" target="MnV9GLGx5AJl5u8KH2vK-169">
          <mxGeometry x="0.0476" y="-10" relative="1" as="geometry">
            <mxPoint as="offset" />
          </mxGeometry>
        </mxCell>
        <mxCell id="MnV9GLGx5AJl5u8KH2vK-167" value="Exceeds 10 Plants?" style="rhombus;whiteSpace=wrap;html=1;shadow=0;fontFamily=Helvetica;fontSize=12;align=center;strokeWidth=1;spacing=6;spacingTop=-4;" vertex="1" parent="WIyWlLk6GJQsqaUBKTNV-1">
          <mxGeometry x="252" y="3270" width="100" height="80" as="geometry" />
        </mxCell>
        <mxCell id="MnV9GLGx5AJl5u8KH2vK-168" value="" style="edgeStyle=orthogonalEdgeStyle;rounded=0;orthogonalLoop=1;jettySize=auto;html=1;entryX=0;entryY=0.5;entryDx=0;entryDy=0;" edge="1" parent="WIyWlLk6GJQsqaUBKTNV-1" source="MnV9GLGx5AJl5u8KH2vK-169" target="MnV9GLGx5AJl5u8KH2vK-170">
          <mxGeometry relative="1" as="geometry">
            <mxPoint x="402" y="3370" as="targetPoint" />
            <Array as="points">
              <mxPoint x="150" y="3370" />
              <mxPoint x="392" y="3370" />
            </Array>
          </mxGeometry>
        </mxCell>
        <mxCell id="MnV9GLGx5AJl5u8KH2vK-169" value="Replace Lowest Health Plant" style="rounded=1;whiteSpace=wrap;html=1;fontSize=12;glass=0;strokeWidth=1;shadow=0;" vertex="1" parent="WIyWlLk6GJQsqaUBKTNV-1">
          <mxGeometry x="70" y="3290" width="120" height="40" as="geometry" />
        </mxCell>
        <mxCell id="MnV9GLGx5AJl5u8KH2vK-183" value="" style="edgeStyle=orthogonalEdgeStyle;rounded=0;orthogonalLoop=1;jettySize=auto;html=1;" edge="1" parent="WIyWlLk6GJQsqaUBKTNV-1" source="MnV9GLGx5AJl5u8KH2vK-170" target="MnV9GLGx5AJl5u8KH2vK-174">
          <mxGeometry relative="1" as="geometry" />
        </mxCell>
        <mxCell id="MnV9GLGx5AJl5u8KH2vK-170" value="Turn 18" style="rounded=1;whiteSpace=wrap;html=1;fontSize=12;glass=0;strokeWidth=1;shadow=0;" vertex="1" parent="WIyWlLk6GJQsqaUBKTNV-1">
          <mxGeometry x="392" y="3350" width="120" height="40" as="geometry" />
        </mxCell>
        <mxCell id="MnV9GLGx5AJl5u8KH2vK-172" value="Keep" style="rounded=0;html=1;jettySize=auto;orthogonalLoop=1;fontSize=11;endArrow=block;endFill=0;endSize=8;strokeWidth=1;shadow=0;labelBackgroundColor=none;edgeStyle=orthogonalEdgeStyle;exitX=0.5;exitY=1;exitDx=0;exitDy=0;" edge="1" parent="WIyWlLk6GJQsqaUBKTNV-1" source="MnV9GLGx5AJl5u8KH2vK-174" target="MnV9GLGx5AJl5u8KH2vK-179">
          <mxGeometry x="-0.4286" y="-10" relative="1" as="geometry">
            <mxPoint as="offset" />
            <mxPoint x="452" y="3550" as="targetPoint" />
            <Array as="points">
              <mxPoint x="452" y="3520" />
              <mxPoint x="302" y="3520" />
            </Array>
          </mxGeometry>
        </mxCell>
        <mxCell id="MnV9GLGx5AJl5u8KH2vK-173" value="Discard" style="edgeStyle=orthogonalEdgeStyle;rounded=0;html=1;jettySize=auto;orthogonalLoop=1;fontSize=11;endArrow=block;endFill=0;endSize=8;strokeWidth=1;shadow=0;labelBackgroundColor=none;" edge="1" parent="WIyWlLk6GJQsqaUBKTNV-1" source="MnV9GLGx5AJl5u8KH2vK-174" target="MnV9GLGx5AJl5u8KH2vK-176">
          <mxGeometry y="10" relative="1" as="geometry">
            <mxPoint as="offset" />
          </mxGeometry>
        </mxCell>
        <mxCell id="MnV9GLGx5AJl5u8KH2vK-174" value="Plant 19" style="rhombus;whiteSpace=wrap;html=1;shadow=0;fontFamily=Helvetica;fontSize=12;align=center;strokeWidth=1;spacing=6;spacingTop=-4;" vertex="1" parent="WIyWlLk6GJQsqaUBKTNV-1">
          <mxGeometry x="402" y="3420" width="100" height="80" as="geometry" />
        </mxCell>
        <mxCell id="MnV9GLGx5AJl5u8KH2vK-175" value="" style="edgeStyle=orthogonalEdgeStyle;rounded=0;orthogonalLoop=1;jettySize=auto;html=1;entryX=1;entryY=0.5;entryDx=0;entryDy=0;" edge="1" parent="WIyWlLk6GJQsqaUBKTNV-1" source="MnV9GLGx5AJl5u8KH2vK-176" target="MnV9GLGx5AJl5u8KH2vK-182">
          <mxGeometry relative="1" as="geometry">
            <mxPoint x="502" y="3660" as="targetPoint" />
            <Array as="points">
              <mxPoint x="612" y="3660" />
              <mxPoint x="512" y="3660" />
            </Array>
          </mxGeometry>
        </mxCell>
        <mxCell id="MnV9GLGx5AJl5u8KH2vK-176" value="Plant Discarded" style="rounded=1;whiteSpace=wrap;html=1;fontSize=12;glass=0;strokeWidth=1;shadow=0;" vertex="1" parent="WIyWlLk6GJQsqaUBKTNV-1">
          <mxGeometry x="552" y="3440" width="120" height="40" as="geometry" />
        </mxCell>
        <mxCell id="MnV9GLGx5AJl5u8KH2vK-177" value="No" style="edgeStyle=orthogonalEdgeStyle;rounded=0;orthogonalLoop=1;jettySize=auto;html=1;entryX=0.5;entryY=0;entryDx=0;entryDy=0;" edge="1" parent="WIyWlLk6GJQsqaUBKTNV-1" source="MnV9GLGx5AJl5u8KH2vK-179" target="MnV9GLGx5AJl5u8KH2vK-182">
          <mxGeometry x="-0.2" y="10" relative="1" as="geometry">
            <mxPoint x="452" y="3620" as="targetPoint" />
            <mxPoint as="offset" />
          </mxGeometry>
        </mxCell>
        <mxCell id="MnV9GLGx5AJl5u8KH2vK-178" value="Yes" style="edgeStyle=orthogonalEdgeStyle;rounded=0;orthogonalLoop=1;jettySize=auto;html=1;" edge="1" parent="WIyWlLk6GJQsqaUBKTNV-1" source="MnV9GLGx5AJl5u8KH2vK-179" target="MnV9GLGx5AJl5u8KH2vK-181">
          <mxGeometry x="0.0476" y="-10" relative="1" as="geometry">
            <mxPoint as="offset" />
          </mxGeometry>
        </mxCell>
        <mxCell id="MnV9GLGx5AJl5u8KH2vK-179" value="Exceeds 10 Plants?" style="rhombus;whiteSpace=wrap;html=1;shadow=0;fontFamily=Helvetica;fontSize=12;align=center;strokeWidth=1;spacing=6;spacingTop=-4;" vertex="1" parent="WIyWlLk6GJQsqaUBKTNV-1">
          <mxGeometry x="252" y="3560" width="100" height="80" as="geometry" />
        </mxCell>
        <mxCell id="MnV9GLGx5AJl5u8KH2vK-180" value="" style="edgeStyle=orthogonalEdgeStyle;rounded=0;orthogonalLoop=1;jettySize=auto;html=1;entryX=0;entryY=0.5;entryDx=0;entryDy=0;" edge="1" parent="WIyWlLk6GJQsqaUBKTNV-1" source="MnV9GLGx5AJl5u8KH2vK-181" target="MnV9GLGx5AJl5u8KH2vK-182">
          <mxGeometry relative="1" as="geometry">
            <mxPoint x="402" y="3660" as="targetPoint" />
            <Array as="points">
              <mxPoint x="150" y="3660" />
              <mxPoint x="392" y="3660" />
            </Array>
          </mxGeometry>
        </mxCell>
        <mxCell id="MnV9GLGx5AJl5u8KH2vK-181" value="Replace Lowest Health Plant" style="rounded=1;whiteSpace=wrap;html=1;fontSize=12;glass=0;strokeWidth=1;shadow=0;" vertex="1" parent="WIyWlLk6GJQsqaUBKTNV-1">
          <mxGeometry x="70" y="3580" width="120" height="40" as="geometry" />
        </mxCell>
        <mxCell id="MnV9GLGx5AJl5u8KH2vK-195" value="" style="edgeStyle=orthogonalEdgeStyle;rounded=0;orthogonalLoop=1;jettySize=auto;html=1;" edge="1" parent="WIyWlLk6GJQsqaUBKTNV-1" source="MnV9GLGx5AJl5u8KH2vK-182" target="MnV9GLGx5AJl5u8KH2vK-186">
          <mxGeometry relative="1" as="geometry" />
        </mxCell>
        <mxCell id="MnV9GLGx5AJl5u8KH2vK-182" value="Turn 19" style="rounded=1;whiteSpace=wrap;html=1;fontSize=12;glass=0;strokeWidth=1;shadow=0;" vertex="1" parent="WIyWlLk6GJQsqaUBKTNV-1">
          <mxGeometry x="392" y="3640" width="120" height="40" as="geometry" />
        </mxCell>
        <mxCell id="MnV9GLGx5AJl5u8KH2vK-184" value="Keep" style="rounded=0;html=1;jettySize=auto;orthogonalLoop=1;fontSize=11;endArrow=block;endFill=0;endSize=8;strokeWidth=1;shadow=0;labelBackgroundColor=none;edgeStyle=orthogonalEdgeStyle;exitX=0.5;exitY=1;exitDx=0;exitDy=0;" edge="1" parent="WIyWlLk6GJQsqaUBKTNV-1" source="MnV9GLGx5AJl5u8KH2vK-186" target="MnV9GLGx5AJl5u8KH2vK-191">
          <mxGeometry x="-0.4286" y="-10" relative="1" as="geometry">
            <mxPoint as="offset" />
            <mxPoint x="452" y="3850" as="targetPoint" />
            <Array as="points">
              <mxPoint x="452" y="3820" />
              <mxPoint x="302" y="3820" />
            </Array>
          </mxGeometry>
        </mxCell>
        <mxCell id="MnV9GLGx5AJl5u8KH2vK-185" value="Discard" style="edgeStyle=orthogonalEdgeStyle;rounded=0;html=1;jettySize=auto;orthogonalLoop=1;fontSize=11;endArrow=block;endFill=0;endSize=8;strokeWidth=1;shadow=0;labelBackgroundColor=none;" edge="1" parent="WIyWlLk6GJQsqaUBKTNV-1" source="MnV9GLGx5AJl5u8KH2vK-186" target="MnV9GLGx5AJl5u8KH2vK-188">
          <mxGeometry y="10" relative="1" as="geometry">
            <mxPoint as="offset" />
          </mxGeometry>
        </mxCell>
        <mxCell id="MnV9GLGx5AJl5u8KH2vK-186" value="Plant 20" style="rhombus;whiteSpace=wrap;html=1;shadow=0;fontFamily=Helvetica;fontSize=12;align=center;strokeWidth=1;spacing=6;spacingTop=-4;" vertex="1" parent="WIyWlLk6GJQsqaUBKTNV-1">
          <mxGeometry x="402" y="3720" width="100" height="80" as="geometry" />
        </mxCell>
        <mxCell id="MnV9GLGx5AJl5u8KH2vK-187" value="" style="edgeStyle=orthogonalEdgeStyle;rounded=0;orthogonalLoop=1;jettySize=auto;html=1;entryX=1;entryY=0.5;entryDx=0;entryDy=0;" edge="1" parent="WIyWlLk6GJQsqaUBKTNV-1" source="MnV9GLGx5AJl5u8KH2vK-188" target="MnV9GLGx5AJl5u8KH2vK-194">
          <mxGeometry relative="1" as="geometry">
            <mxPoint x="502" y="3960" as="targetPoint" />
            <Array as="points">
              <mxPoint x="612" y="3960" />
              <mxPoint x="512" y="3960" />
            </Array>
          </mxGeometry>
        </mxCell>
        <mxCell id="MnV9GLGx5AJl5u8KH2vK-188" value="Plant Discarded" style="rounded=1;whiteSpace=wrap;html=1;fontSize=12;glass=0;strokeWidth=1;shadow=0;" vertex="1" parent="WIyWlLk6GJQsqaUBKTNV-1">
          <mxGeometry x="552" y="3740" width="120" height="40" as="geometry" />
        </mxCell>
        <mxCell id="MnV9GLGx5AJl5u8KH2vK-189" value="No" style="edgeStyle=orthogonalEdgeStyle;rounded=0;orthogonalLoop=1;jettySize=auto;html=1;entryX=0.5;entryY=0;entryDx=0;entryDy=0;" edge="1" parent="WIyWlLk6GJQsqaUBKTNV-1" source="MnV9GLGx5AJl5u8KH2vK-191" target="MnV9GLGx5AJl5u8KH2vK-194">
          <mxGeometry x="-0.2" y="10" relative="1" as="geometry">
            <mxPoint x="452" y="3920" as="targetPoint" />
            <mxPoint as="offset" />
          </mxGeometry>
        </mxCell>
        <mxCell id="MnV9GLGx5AJl5u8KH2vK-190" value="Yes" style="edgeStyle=orthogonalEdgeStyle;rounded=0;orthogonalLoop=1;jettySize=auto;html=1;" edge="1" parent="WIyWlLk6GJQsqaUBKTNV-1" source="MnV9GLGx5AJl5u8KH2vK-191" target="MnV9GLGx5AJl5u8KH2vK-193">
          <mxGeometry x="0.0476" y="-10" relative="1" as="geometry">
            <mxPoint as="offset" />
          </mxGeometry>
        </mxCell>
        <mxCell id="MnV9GLGx5AJl5u8KH2vK-191" value="Exceeds 10 Plants?" style="rhombus;whiteSpace=wrap;html=1;shadow=0;fontFamily=Helvetica;fontSize=12;align=center;strokeWidth=1;spacing=6;spacingTop=-4;" vertex="1" parent="WIyWlLk6GJQsqaUBKTNV-1">
          <mxGeometry x="252" y="3860" width="100" height="80" as="geometry" />
        </mxCell>
        <mxCell id="MnV9GLGx5AJl5u8KH2vK-192" value="" style="edgeStyle=orthogonalEdgeStyle;rounded=0;orthogonalLoop=1;jettySize=auto;html=1;entryX=0;entryY=0.5;entryDx=0;entryDy=0;" edge="1" parent="WIyWlLk6GJQsqaUBKTNV-1" source="MnV9GLGx5AJl5u8KH2vK-193" target="MnV9GLGx5AJl5u8KH2vK-194">
          <mxGeometry relative="1" as="geometry">
            <mxPoint x="402" y="3960" as="targetPoint" />
            <Array as="points">
              <mxPoint x="150" y="3960" />
              <mxPoint x="392" y="3960" />
            </Array>
          </mxGeometry>
        </mxCell>
        <mxCell id="MnV9GLGx5AJl5u8KH2vK-193" value="Replace Lowest Health Plant" style="rounded=1;whiteSpace=wrap;html=1;fontSize=12;glass=0;strokeWidth=1;shadow=0;" vertex="1" parent="WIyWlLk6GJQsqaUBKTNV-1">
          <mxGeometry x="70" y="3880" width="120" height="40" as="geometry" />
        </mxCell>
        <mxCell id="MnV9GLGx5AJl5u8KH2vK-201" value="" style="edgeStyle=orthogonalEdgeStyle;rounded=0;orthogonalLoop=1;jettySize=auto;html=1;" edge="1" parent="WIyWlLk6GJQsqaUBKTNV-1" source="MnV9GLGx5AJl5u8KH2vK-194" target="MnV9GLGx5AJl5u8KH2vK-196">
          <mxGeometry relative="1" as="geometry" />
        </mxCell>
        <mxCell id="MnV9GLGx5AJl5u8KH2vK-194" value="Turn 20" style="rounded=1;whiteSpace=wrap;html=1;fontSize=12;glass=0;strokeWidth=1;shadow=0;" vertex="1" parent="WIyWlLk6GJQsqaUBKTNV-1">
          <mxGeometry x="392" y="3940" width="120" height="40" as="geometry" />
        </mxCell>
        <mxCell id="MnV9GLGx5AJl5u8KH2vK-202" value="" style="edgeStyle=orthogonalEdgeStyle;rounded=0;orthogonalLoop=1;jettySize=auto;html=1;" edge="1" parent="WIyWlLk6GJQsqaUBKTNV-1" source="MnV9GLGx5AJl5u8KH2vK-196" target="MnV9GLGx5AJl5u8KH2vK-197">
          <mxGeometry relative="1" as="geometry" />
        </mxCell>
        <mxCell id="MnV9GLGx5AJl5u8KH2vK-196" value="Add Total Dollar Value of Plants" style="rounded=1;whiteSpace=wrap;html=1;fontSize=12;glass=0;strokeWidth=1;shadow=0;" vertex="1" parent="WIyWlLk6GJQsqaUBKTNV-1">
          <mxGeometry x="392" y="4010" width="120" height="40" as="geometry" />
        </mxCell>
        <mxCell id="MnV9GLGx5AJl5u8KH2vK-203" value="" style="edgeStyle=orthogonalEdgeStyle;rounded=0;orthogonalLoop=1;jettySize=auto;html=1;" edge="1" parent="WIyWlLk6GJQsqaUBKTNV-1" source="MnV9GLGx5AJl5u8KH2vK-197" target="MnV9GLGx5AJl5u8KH2vK-198">
          <mxGeometry relative="1" as="geometry" />
        </mxCell>
        <mxCell id="MnV9GLGx5AJl5u8KH2vK-197" value="Multiply Total Health Value of Plants" style="rounded=1;whiteSpace=wrap;html=1;fontSize=12;glass=0;strokeWidth=1;shadow=0;" vertex="1" parent="WIyWlLk6GJQsqaUBKTNV-1">
          <mxGeometry x="392" y="4080" width="120" height="40" as="geometry" />
        </mxCell>
        <mxCell id="MnV9GLGx5AJl5u8KH2vK-205" value="" style="edgeStyle=orthogonalEdgeStyle;rounded=0;orthogonalLoop=1;jettySize=auto;html=1;" edge="1" parent="WIyWlLk6GJQsqaUBKTNV-1" source="MnV9GLGx5AJl5u8KH2vK-198" target="MnV9GLGx5AJl5u8KH2vK-199">
          <mxGeometry relative="1" as="geometry" />
        </mxCell>
        <mxCell id="MnV9GLGx5AJl5u8KH2vK-198" value="Score" style="rounded=1;whiteSpace=wrap;html=1;fontSize=12;glass=0;strokeWidth=1;shadow=0;" vertex="1" parent="WIyWlLk6GJQsqaUBKTNV-1">
          <mxGeometry x="392" y="4150" width="120" height="40" as="geometry" />
        </mxCell>
        <mxCell id="MnV9GLGx5AJl5u8KH2vK-206" value="" style="edgeStyle=orthogonalEdgeStyle;rounded=0;orthogonalLoop=1;jettySize=auto;html=1;" edge="1" parent="WIyWlLk6GJQsqaUBKTNV-1" source="MnV9GLGx5AJl5u8KH2vK-199" target="MnV9GLGx5AJl5u8KH2vK-200">
          <mxGeometry relative="1" as="geometry" />
        </mxCell>
        <mxCell id="MnV9GLGx5AJl5u8KH2vK-210" value="" style="edgeStyle=orthogonalEdgeStyle;rounded=0;orthogonalLoop=1;jettySize=auto;html=1;" edge="1" parent="WIyWlLk6GJQsqaUBKTNV-1" source="MnV9GLGx5AJl5u8KH2vK-199" target="MnV9GLGx5AJl5u8KH2vK-209">
          <mxGeometry relative="1" as="geometry" />
        </mxCell>
        <mxCell id="MnV9GLGx5AJl5u8KH2vK-199" value="Game Ends" style="rounded=1;whiteSpace=wrap;html=1;fontSize=12;glass=0;strokeWidth=1;shadow=0;" vertex="1" parent="WIyWlLk6GJQsqaUBKTNV-1">
          <mxGeometry x="392" y="4220" width="120" height="40" as="geometry" />
        </mxCell>
        <mxCell id="MnV9GLGx5AJl5u8KH2vK-208" value="" style="edgeStyle=orthogonalEdgeStyle;rounded=0;orthogonalLoop=1;jettySize=auto;html=1;entryX=1;entryY=0.5;entryDx=0;entryDy=0;exitX=0.5;exitY=0;exitDx=0;exitDy=0;" edge="1" parent="WIyWlLk6GJQsqaUBKTNV-1" source="MnV9GLGx5AJl5u8KH2vK-200" target="WIyWlLk6GJQsqaUBKTNV-3">
          <mxGeometry relative="1" as="geometry">
            <mxPoint x="669.9999999999998" y="60" as="targetPoint" />
            <Array as="points">
              <mxPoint x="720" y="4220" />
              <mxPoint x="720" y="40" />
            </Array>
          </mxGeometry>
        </mxCell>
        <mxCell id="MnV9GLGx5AJl5u8KH2vK-200" value="Play Again" style="rounded=1;whiteSpace=wrap;html=1;fontSize=12;glass=0;strokeWidth=1;shadow=0;" vertex="1" parent="WIyWlLk6GJQsqaUBKTNV-1">
          <mxGeometry x="660" y="4220" width="120" height="40" as="geometry" />
        </mxCell>
        <mxCell id="MnV9GLGx5AJl5u8KH2vK-212" value="" style="edgeStyle=orthogonalEdgeStyle;rounded=0;orthogonalLoop=1;jettySize=auto;html=1;" edge="1" parent="WIyWlLk6GJQsqaUBKTNV-1" source="MnV9GLGx5AJl5u8KH2vK-209" target="MnV9GLGx5AJl5u8KH2vK-211">
          <mxGeometry relative="1" as="geometry" />
        </mxCell>
        <mxCell id="MnV9GLGx5AJl5u8KH2vK-209" value="Quit Game" style="rounded=1;whiteSpace=wrap;html=1;fontSize=12;glass=0;strokeWidth=1;shadow=0;" vertex="1" parent="WIyWlLk6GJQsqaUBKTNV-1">
          <mxGeometry x="392" y="4290" width="120" height="40" as="geometry" />
        </mxCell>
        <mxCell id="MnV9GLGx5AJl5u8KH2vK-211" value="Initialize Matrix" style="rounded=1;whiteSpace=wrap;html=1;fontSize=12;glass=0;strokeWidth=1;shadow=0;" vertex="1" parent="WIyWlLk6GJQsqaUBKTNV-1">
          <mxGeometry x="392" y="4360" width="120" height="40" as="geometry" />
        </mxCell>
        <mxCell id="MnV9GLGx5AJl5u8KH2vK-213" value="ProjectTwo FlowChart JohnBundalian" style="text;html=1;strokeColor=none;fillColor=none;align=center;verticalAlign=middle;whiteSpace=wrap;rounded=0;" vertex="1" parent="WIyWlLk6GJQsqaUBKTNV-1">
          <mxGeometry x="130" y="90" width="180" height="90" as="geometry" />
        </mxCell>
      </root>
    </mxGraphModel>
  </diagram>
</mxfile>
